<svg xmlns="http://www.w3.org/2000/svg" viewBox="0 0 64 64">
  <!-- Background -->
  <rect width="64" height="64" rx="8" fill="#0F172A"/>
  
  <!-- Pixel Money Bag - Base -->
  <rect x="20" y="14" width="8" height="8" fill="#38F9D7"/>
  <rect x="28" y="14" width="8" height="8" fill="#38F9D7"/>
  <rect x="36" y="14" width="8" height="8" fill="#38F9D7"/>
  
  <rect x="12" y="22" width="8" height="8" fill="#38F9D7"/>
  <rect x="20" y="22" width="8" height="8" fill="#38F9D7"/>
  <rect x="28" y="22" width="8" height="8" fill="#38F9D7"/>
  <rect x="36" y="22" width="8" height="8" fill="#38F9D7"/>
  <rect x="44" y="22" width="8" height="8" fill="#38F9D7"/>
  
  <rect x="12" y="30" width="8" height="8" fill="#38F9D7"/>
  <rect x="20" y="30" width="8" height="8" fill="#38F9D7"/>
  <rect x="28" y="30" width="8" height="8" fill="#4FACFE"/>
  <rect x="36" y="30" width="8" height="8" fill="#4FACFE"/>
  <rect x="44" y="30" width="8" height="8" fill="#38F9D7"/>
  
  <rect x="12" y="38" width="8" height="8" fill="#38F9D7"/>
  <rect x="20" y="38" width="8" height="8" fill="#38F9D7"/>
  <rect x="28" y="38" width="8" height="8" fill="#4FACFE"/>
  <rect x="36" y="38" width="8" height="8" fill="#4FACFE"/>
  <rect x="44" y="38" width="8" height="8" fill="#38F9D7"/>
  
  <rect x="20" y="46" width="8" height="8" fill="#38F9D7"/>
  <rect x="28" y="46" width="8" height="8" fill="#38F9D7"/>
  <rect x="36" y="46" width="8" height="8" fill="#38F9D7"/>
  
  <!-- Dollar sign overlay -->
  <rect x="24" y="26" width="16" height="4" fill="#FFFFFF" fill-opacity="0.9"/>
  <rect x="28" y="18" width="8" height="28" fill="#FFFFFF" fill-opacity="0.9"/>
  
  <!-- Glowing effect -->
  <rect x="10" y="12" width="4" height="4" fill="#4FACFE" fill-opacity="0.7"/>
  <rect x="50" y="50" width="4" height="4" fill="#4FACFE" fill-opacity="0.7"/>
</svg>